<svg xmlns="http://www.w3.org/2000/svg" xmlns:xlink="http://www.w3.org/1999/xlink" width="120" zoomAndPan="magnify" viewBox="0 0 90 37.5" height="50" preserveAspectRatio="xMidYMid meet" version="1.0"><defs><g/><clipPath id="3176aa1bda"><path d="M 3 11.101562 L 23.6875 11.101562 L 23.6875 25.90625 L 3 25.90625 Z M 3 11.101562 " clip-rule="nonzero"/></clipPath><clipPath id="7121a6adc6"><path d="M 3 12 L 15 12 L 15 25.90625 L 3 25.90625 Z M 3 12 " clip-rule="nonzero"/></clipPath><clipPath id="cf3f88bd16"><path d="M 17 11.101562 L 23.6875 11.101562 L 23.6875 23 L 17 23 Z M 17 11.101562 " clip-rule="nonzero"/></clipPath><clipPath id="b710e1b0eb"><path d="M 11 25 L 12 25 L 12 25.90625 L 11 25.90625 Z M 11 25 " clip-rule="nonzero"/></clipPath><clipPath id="95262b3348"><path d="M 3 11.101562 L 23.6875 11.101562 L 23.6875 25.90625 L 3 25.90625 Z M 3 11.101562 " clip-rule="nonzero"/></clipPath></defs><g clip-path="url(#3176aa1bda)"><path fill="#58454d" d="M 23.089844 15.179688 C 22.851562 13.886719 22.199219 12.53125 20.8125 12.191406 C 19.515625 11.832031 18.175781 11.691406 16.84375 11.523438 C 13.210938 11.101562 9.472656 11.363281 5.964844 12.410156 C 4.824219 12.71875 3.855469 13.550781 3.640625 14.75 C 3.148438 17.503906 2.96875 21.5625 4.230469 24.09375 C 5 25.902344 10.457031 25.625 12.269531 25.761719 C 14.378906 25.753906 21.195312 25.800781 22.175781 23.867188 C 23.425781 21.5 23.53125 17.792969 23.089844 15.179688 Z M 23.089844 15.179688 " fill-opacity="1" fill-rule="nonzero"/><path fill="#edd5b8" d="M 3.5625 21.230469 C 3.5625 21.230469 4.058594 24.203125 4.898438 24.644531 C 5.738281 25.085938 9.511719 25.527344 11.234375 25.539062 C 13.417969 25.433594 20.632812 25.902344 22.0625 23.640625 C 23.296875 21.753906 23.546875 15.476562 22.222656 13.496094 C 21.527344 12.492188 20.542969 12.203125 19.410156 12 C 17.417969 11.246094 6.03125 11.257812 4.457031 13.445312 C 3.40625 14.273438 3.378906 20.28125 3.5625 21.230469 Z M 3.5625 21.230469 " fill-opacity="1" fill-rule="nonzero"/></g><path fill="#db5042" d="M 10.648438 16.101562 C 10.648438 16.101562 10.464844 17.4375 10.515625 18.65625 C 10.5625 19.875 10.765625 21.136719 10.765625 21.136719 C 11.027344 21.550781 16.882812 18.847656 16.996094 18.382812 C 16.609375 17.699219 11.683594 15.742188 10.648438 16.101562 Z M 10.648438 16.101562 " fill-opacity="1" fill-rule="nonzero"/><path fill="#e67263" d="M 11.011719 16.339844 C 11.011719 16.390625 10.757812 20.738281 11.183594 20.792969 C 11.429688 20.820312 13.550781 19.925781 14.378906 19.453125 C 15.210938 18.980469 16.527344 18.527344 16.496094 18.394531 C 16.417969 18.011719 11.632812 16.085938 11.011719 16.339844 Z M 11.011719 16.339844 " fill-opacity="1" fill-rule="nonzero"/><g clip-path="url(#7121a6adc6)"><path fill="#e4c39d" d="M 11.433594 25.152344 C 12.296875 25.273438 13.148438 25.394531 14.023438 25.398438 C 14.046875 25.402344 14.078125 25.402344 14.089844 25.425781 C 14.105469 25.457031 14.046875 25.457031 14.054688 25.5 C 14.128906 25.5 14.207031 25.5 14.289062 25.5 C 11.953125 25.535156 9.609375 25.4375 7.285156 25.191406 C 6.59375 25.117188 5.886719 25.039062 5.234375 24.765625 C 3.46875 23.625 3.570312 19.867188 3.585938 17.964844 C 3.761719 15.140625 3.402344 12.988281 6.777344 12.285156 C 5.355469 12.980469 5.324219 13.640625 5.285156 15.105469 C 5.203125 16.550781 5.320312 17.992188 5.371094 19.433594 C 5.464844 23.890625 7.160156 24.738281 11.316406 25.136719 C 11.351562 25.164062 11.394531 25.140625 11.433594 25.152344 Z M 11.433594 25.152344 " fill-opacity="1" fill-rule="nonzero"/></g><g clip-path="url(#cf3f88bd16)"><path fill="#f1dfc8" d="M 22.460938 22.660156 C 22.285156 22.773438 22.148438 22.4375 22.09375 22.3125 C 21.675781 21.351562 21.5625 20.308594 21.507812 19.273438 C 21.433594 18.257812 21.503906 17.246094 21.507812 16.234375 C 21.425781 15.414062 21.449219 14.585938 21.351562 13.765625 C 20.804688 12.152344 18.746094 12.308594 17.414062 11.855469 C 17.433594 11.835938 17.464844 11.847656 17.488281 11.839844 C 18.839844 12.070312 20.375 12.035156 21.574219 12.777344 C 23.683594 14.644531 23.132812 20.148438 22.460938 22.660156 Z M 22.460938 22.660156 " fill-opacity="1" fill-rule="nonzero"/></g><path fill="#edd5b8" d="M 21.503906 12.902344 C 21.460938 12.890625 21.4375 12.855469 21.414062 12.824219 C 21.457031 12.835938 21.480469 12.871094 21.503906 12.902344 Z M 21.503906 12.902344 " fill-opacity="1" fill-rule="nonzero"/><path fill="#58454d" d="M 21.835938 22.195312 C 21.925781 22.671875 21.703125 23.171875 21.4375 23.5625 C 21.28125 23.753906 20.875 24.113281 20.636719 24.089844 C 20.617188 24.007812 20.742188 23.910156 20.804688 23.851562 C 21.359375 23.4375 21.652344 22.847656 21.835938 22.195312 Z M 21.835938 22.195312 " fill-opacity="1" fill-rule="nonzero"/><g clip-path="url(#b710e1b0eb)"><path fill="#e5c6a2" d="M 11.171875 25.015625 C 11.132812 25.027344 11.089844 25.042969 11.058594 25 C 11.097656 25.003906 11.136719 24.988281 11.171875 25.015625 Z M 11.171875 25.015625 " fill-opacity="1" fill-rule="nonzero"/></g><path fill="#edd5b8" d="M 8.40625 24.878906 C 8.429688 24.886719 8.453125 24.890625 8.488281 24.898438 C 8.449219 24.933594 8.425781 24.902344 8.40625 24.878906 Z M 8.40625 24.878906 " fill-opacity="1" fill-rule="nonzero"/><path fill="#58454d" d="M 17.136719 18.378906 C 15.375 17.027344 13.078125 16.066406 10.847656 15.933594 C 10.152344 15.96875 10.417969 18.097656 10.378906 18.625 C 10.460938 19.09375 10.253906 21.609375 10.984375 21.375 C 12.773438 20.886719 14.472656 20.058594 16.101562 19.175781 C 16.296875 19.023438 17.21875 18.609375 17.136719 18.378906 Z M 16.734375 18.503906 C 14.921875 19.539062 12.988281 20.441406 10.984375 21.03125 C 10.523438 21.117188 10.738281 18.351562 10.648438 17.921875 C 10.652344 17.921875 10.652344 17.921875 10.652344 17.921875 C 10.726562 17.582031 10.503906 16.238281 10.894531 16.199219 C 12.960938 16.34375 14.925781 17.1875 16.675781 18.265625 C 16.777344 18.316406 16.867188 18.421875 16.734375 18.503906 Z M 16.734375 18.503906 " fill-opacity="1" fill-rule="nonzero"/><g clip-path="url(#95262b3348)"><path fill="#58454d" d="M 23.089844 15.179688 C 22.851562 13.886719 22.199219 12.53125 20.8125 12.191406 C 19.515625 11.832031 18.175781 11.691406 16.84375 11.523438 C 13.210938 11.101562 9.472656 11.363281 5.964844 12.410156 C 4.824219 12.71875 3.855469 13.550781 3.640625 14.75 C 3.148438 17.503906 2.96875 21.5625 4.230469 24.09375 C 5 25.902344 10.457031 25.625 12.269531 25.761719 C 14.378906 25.753906 21.195312 25.800781 22.175781 23.867188 C 23.425781 21.5 23.53125 17.792969 23.089844 15.179688 Z M 22.875 19.265625 C 22.679688 21.003906 22.601562 23.941406 20.589844 24.527344 C 18.457031 25.160156 16.203125 25.242188 13.992188 25.332031 C 11.734375 25.363281 9.464844 25.277344 7.21875 25.035156 C 6.339844 24.902344 5.210938 24.917969 4.675781 24.085938 C 3.628906 22.289062 3.671875 20.09375 3.695312 18.078125 C 3.804688 16.753906 3.660156 15.265625 4.300781 14.066406 C 4.996094 12.867188 6.527344 12.683594 7.75 12.351562 C 10.96875 11.652344 14.304688 11.566406 17.566406 11.984375 C 18.867188 12.207031 20.355469 12.167969 21.503906 12.886719 C 23.160156 14.457031 22.902344 17.167969 22.875 19.265625 Z M 22.875 19.265625 " fill-opacity="1" fill-rule="nonzero"/></g><g fill="#000000" fill-opacity="1"><g transform="translate(25.799157, 24.412117)"><g><path d="M 7 -8.71875 L 7 -7.265625 L 4.46875 -7.265625 L 4.46875 0 L 2.75 0 L 2.75 -7.265625 L 0.234375 -7.265625 L 0.234375 -8.71875 Z M 7 -8.71875 "/></g></g><g transform="translate(33.026282, 24.412117)"><g><path d="M 3.015625 0.125 C 2.273438 0.125 1.726562 -0.0703125 1.375 -0.46875 C 1.019531 -0.875 0.84375 -1.457031 0.84375 -2.21875 L 0.84375 -6.578125 L 2.5 -6.578125 L 2.5 -2.421875 C 2.5 -2.023438 2.582031 -1.734375 2.75 -1.546875 C 2.925781 -1.359375 3.195312 -1.265625 3.5625 -1.265625 C 4.019531 -1.265625 4.375 -1.414062 4.625 -1.71875 C 4.882812 -2.019531 5.015625 -2.492188 5.015625 -3.140625 L 5.015625 -6.578125 L 6.671875 -6.578125 L 6.671875 0 L 5.078125 0 L 5.078125 -0.96875 L 4.953125 -1 C 4.742188 -0.613281 4.484375 -0.328125 4.171875 -0.140625 C 3.867188 0.0351562 3.484375 0.125 3.015625 0.125 Z M 3.015625 0.125 "/></g></g><g transform="translate(40.635036, 24.412117)"><g><path d="M 4.59375 0.125 C 3.757812 0.125 3.132812 -0.1875 2.71875 -0.8125 L 2.59375 -0.796875 L 2.59375 0 L 0.953125 0 L 0.953125 -9.21875 L 2.59375 -9.21875 L 2.59375 -5.8125 L 2.71875 -5.78125 C 2.945312 -6.09375 3.210938 -6.320312 3.515625 -6.46875 C 3.828125 -6.625 4.203125 -6.703125 4.640625 -6.703125 C 5.171875 -6.703125 5.632812 -6.578125 6.03125 -6.328125 C 6.425781 -6.078125 6.734375 -5.695312 6.953125 -5.1875 C 7.179688 -4.675781 7.296875 -4.039062 7.296875 -3.28125 C 7.296875 -2.539062 7.179688 -1.910156 6.953125 -1.390625 C 6.722656 -0.878906 6.40625 -0.5 6 -0.25 C 5.59375 0 5.125 0.125 4.59375 0.125 Z M 4.09375 -1.28125 C 4.582031 -1.28125 4.953125 -1.441406 5.203125 -1.765625 C 5.460938 -2.085938 5.59375 -2.59375 5.59375 -3.28125 C 5.59375 -3.976562 5.460938 -4.488281 5.203125 -4.8125 C 4.953125 -5.132812 4.582031 -5.296875 4.09375 -5.296875 C 3.632812 -5.296875 3.265625 -5.128906 2.984375 -4.796875 C 2.710938 -4.460938 2.578125 -3.957031 2.578125 -3.28125 C 2.578125 -2.601562 2.710938 -2.097656 2.984375 -1.765625 C 3.265625 -1.441406 3.632812 -1.28125 4.09375 -1.28125 Z M 4.09375 -1.28125 "/></g></g><g transform="translate(48.512125, 24.412117)"><g><path d="M 6.5 -2.921875 L 2.265625 -2.921875 C 2.316406 -2.347656 2.484375 -1.929688 2.765625 -1.671875 C 3.046875 -1.410156 3.425781 -1.28125 3.90625 -1.28125 C 4.28125 -1.28125 4.582031 -1.347656 4.8125 -1.484375 C 5.050781 -1.628906 5.242188 -1.84375 5.390625 -2.125 L 5.515625 -2.125 L 6.609375 -1.421875 C 6.390625 -0.960938 6.0625 -0.585938 5.625 -0.296875 C 5.195312 -0.015625 4.625 0.125 3.90625 0.125 C 3.21875 0.125 2.625 -0.00390625 2.125 -0.265625 C 1.632812 -0.523438 1.253906 -0.910156 0.984375 -1.421875 C 0.722656 -1.929688 0.59375 -2.550781 0.59375 -3.28125 C 0.59375 -4.03125 0.734375 -4.660156 1.015625 -5.171875 C 1.296875 -5.691406 1.675781 -6.078125 2.15625 -6.328125 C 2.632812 -6.578125 3.175781 -6.703125 3.78125 -6.703125 C 4.707031 -6.703125 5.421875 -6.453125 5.921875 -5.953125 C 6.421875 -5.460938 6.671875 -4.742188 6.671875 -3.796875 C 6.671875 -3.453125 6.65625 -3.179688 6.625 -2.984375 Z M 5.078125 -3.984375 C 5.066406 -4.484375 4.953125 -4.847656 4.734375 -5.078125 C 4.515625 -5.304688 4.195312 -5.421875 3.78125 -5.421875 C 2.945312 -5.421875 2.457031 -4.941406 2.3125 -3.984375 Z M 5.078125 -3.984375 "/></g></g></g><g fill="#ff5757" fill-opacity="1"><g transform="translate(55.658839, 24.412117)"><g><path d="M 7 -8.71875 L 7 -7.265625 L 4.46875 -7.265625 L 4.46875 0 L 2.75 0 L 2.75 -7.265625 L 0.234375 -7.265625 L 0.234375 -8.71875 Z M 7 -8.71875 "/></g></g><g transform="translate(62.885964, 24.412117)"><g><path d="M 3.828125 0.125 C 3.179688 0.125 2.613281 -0.00390625 2.125 -0.265625 C 1.632812 -0.535156 1.253906 -0.925781 0.984375 -1.4375 C 0.722656 -1.945312 0.59375 -2.5625 0.59375 -3.28125 C 0.59375 -4.007812 0.722656 -4.628906 0.984375 -5.140625 C 1.253906 -5.648438 1.632812 -6.035156 2.125 -6.296875 C 2.613281 -6.566406 3.179688 -6.703125 3.828125 -6.703125 C 4.472656 -6.703125 5.035156 -6.566406 5.515625 -6.296875 C 6.003906 -6.035156 6.382812 -5.648438 6.65625 -5.140625 C 6.925781 -4.628906 7.0625 -4.007812 7.0625 -3.28125 C 7.0625 -2.5625 6.925781 -1.945312 6.65625 -1.4375 C 6.382812 -0.925781 6.003906 -0.535156 5.515625 -0.265625 C 5.035156 -0.00390625 4.472656 0.125 3.828125 0.125 Z M 3.828125 -1.28125 C 4.847656 -1.28125 5.359375 -1.945312 5.359375 -3.28125 C 5.359375 -3.976562 5.222656 -4.488281 4.953125 -4.8125 C 4.691406 -5.132812 4.316406 -5.296875 3.828125 -5.296875 C 2.804688 -5.296875 2.296875 -4.625 2.296875 -3.28125 C 2.296875 -1.945312 2.804688 -1.28125 3.828125 -1.28125 Z M 3.828125 -1.28125 "/></g></g><g transform="translate(70.530496, 24.412117)"><g><path d="M 3.828125 0.125 C 3.179688 0.125 2.613281 -0.00390625 2.125 -0.265625 C 1.632812 -0.535156 1.253906 -0.925781 0.984375 -1.4375 C 0.722656 -1.945312 0.59375 -2.5625 0.59375 -3.28125 C 0.59375 -4.007812 0.722656 -4.628906 0.984375 -5.140625 C 1.253906 -5.648438 1.632812 -6.035156 2.125 -6.296875 C 2.613281 -6.566406 3.179688 -6.703125 3.828125 -6.703125 C 4.472656 -6.703125 5.035156 -6.566406 5.515625 -6.296875 C 6.003906 -6.035156 6.382812 -5.648438 6.65625 -5.140625 C 6.925781 -4.628906 7.0625 -4.007812 7.0625 -3.28125 C 7.0625 -2.5625 6.925781 -1.945312 6.65625 -1.4375 C 6.382812 -0.925781 6.003906 -0.535156 5.515625 -0.265625 C 5.035156 -0.00390625 4.472656 0.125 3.828125 0.125 Z M 3.828125 -1.28125 C 4.847656 -1.28125 5.359375 -1.945312 5.359375 -3.28125 C 5.359375 -3.976562 5.222656 -4.488281 4.953125 -4.8125 C 4.691406 -5.132812 4.316406 -5.296875 3.828125 -5.296875 C 2.804688 -5.296875 2.296875 -4.625 2.296875 -3.28125 C 2.296875 -1.945312 2.804688 -1.28125 3.828125 -1.28125 Z M 3.828125 -1.28125 "/></g></g><g transform="translate(78.175029, 24.412117)"><g><path d="M 2.734375 0.125 C 2.140625 0.125 1.6875 -0.03125 1.375 -0.34375 C 1.0625 -0.664062 0.90625 -1.15625 0.90625 -1.8125 L 0.90625 -9.21875 L 2.5625 -9.21875 L 2.5625 -1.875 C 2.5625 -1.476562 2.726562 -1.28125 3.0625 -1.28125 C 3.15625 -1.28125 3.253906 -1.296875 3.359375 -1.328125 L 3.453125 -1.296875 L 3.59375 -0.03125 C 3.5 0.0195312 3.375 0.0546875 3.21875 0.078125 C 3.070312 0.109375 2.910156 0.125 2.734375 0.125 Z M 2.734375 0.125 "/></g></g></g></svg>